<svg xmlns="http://www.w3.org/2000/svg" width="32.268" height="34.644" viewBox="0 0 32.268 34.644"><path d="M14.186,30.267c-7.99,2.4-7.99-4-11.186-4.794m22.372,9.588V28.877a5.385,5.385,0,0,0-1.5-4.171c5.018-.559,10.291-2.461,10.291-11.186a8.692,8.692,0,0,0-2.4-5.991A8.1,8.1,0,0,0,31.621,1.5S29.735.943,25.372,3.868a21.382,21.382,0,0,0-11.186,0C9.824.943,7.938,1.5,7.938,1.5a8.1,8.1,0,0,0-.144,6.025,8.693,8.693,0,0,0-2.4,6.041c0,8.661,5.273,10.563,10.291,11.186a5.385,5.385,0,0,0-1.5,4.123v6.184" transform="translate(-2.394 -0.917)" fill="none" stroke="#000" stroke-linecap="round" stroke-linejoin="round" stroke-width="1"/></svg>