<svg xmlns="http://www.w3.org/2000/svg" width="34.326" height="34.326" viewBox="0 0 34.326 34.326"><path d="M30.946,2.25H2.373A2.391,2.391,0,0,0,0,4.653V33.173a2.391,2.391,0,0,0,2.373,2.4H30.946a2.4,2.4,0,0,0,2.38-2.4V4.653A2.4,2.4,0,0,0,30.946,2.25ZM10.072,30.815H5.133v-15.9H10.08v15.9ZM7.6,12.739a2.864,2.864,0,1,1,2.864-2.864A2.865,2.865,0,0,1,7.6,12.739ZM28.588,30.815H23.648V23.079c0-1.845-.037-4.218-2.566-4.218-2.574,0-2.968,2.008-2.968,4.084v7.87H13.174v-15.9h4.739v2.172h.067a5.2,5.2,0,0,1,4.679-2.566c5,0,5.929,3.3,5.929,7.58Z" transform="translate(0.5 -1.75)" fill="none" stroke="#000" stroke-width="1"/></svg>