<?xml version="1.0" encoding="UTF-8" standalone="no"?>
<svg
   xmlns:dc="http://purl.org/dc/elements/1.1/"
   xmlns:cc="http://creativecommons.org/ns#"
   xmlns:rdf="http://www.w3.org/1999/02/22-rdf-syntax-ns#"
   xmlns:svg="http://www.w3.org/2000/svg"
   xmlns="http://www.w3.org/2000/svg"
   xmlns:sodipodi="http://sodipodi.sourceforge.net/DTD/sodipodi-0.dtd"
   xmlns:inkscape="http://www.inkscape.org/namespaces/inkscape"
   sodipodi:docname="yevgeniy__monogram.svg"
   inkscape:version="1.0 (4035a4fb49, 2020-05-01)"
   id="svg8"
   version="1.1"
   viewBox="0 0 32.330757 31.212446"
   height="31.212446mm"
   width="32.330757mm">
  <defs
     id="defs2" />
  <sodipodi:namedview
     inkscape:window-maximized="1"
     inkscape:window-y="577"
     inkscape:window-x="1271"
     inkscape:window-height="1001"
     inkscape:window-width="1920"
     showgrid="false"
     inkscape:document-rotation="0"
     inkscape:current-layer="layer1"
     inkscape:document-units="mm"
     inkscape:cy="20.078943"
     inkscape:cx="1.0009179"
     inkscape:zoom="4"
     inkscape:pageshadow="2"
     inkscape:pageopacity="0.0"
     borderopacity="1.0"
     bordercolor="#666666"
     pagecolor="#ffffff"
     id="base" />
  <metadata
     id="metadata5">
    <rdf:RDF>
      <cc:Work
         rdf:about="">
        <dc:format>image/svg+xml</dc:format>
        <dc:type
           rdf:resource="http://purl.org/dc/dcmitype/StillImage" />
        <dc:title />
      </cc:Work>
    </rdf:RDF>
  </metadata>
  <g
     transform="translate(-20.005298,-98.464074)"
     id="layer1"
     inkscape:groupmode="layer"
     inkscape:label="Layer 1">
    <path
       sodipodi:nodetypes="sccscsscssssscssssssccssscscsscssssscssssssccccsssscsscscccsscsssscszsscssssscccccsssssscsssccccccccsssccsscsccsscsssssscsssccccscscscscscc"
       id="path869"
       d="m 39.123568,123.61827 c -1.093037,-0.33629 -2.305039,-1.55116 -2.683126,-2.68947 -0.40121,-1.5729 -0.02379,-3.0957 0.415332,-3.90523 -0.162494,-0.13436 -0.204581,-0.17852 -0.395336,-0.36928 l -0.32872,-0.35059 -0.400171,0.55153 c -0.289504,0.39901 -1.360802,1.72314 -2.20511,2.16917 -0.712923,0.37662 -1.077425,0.53013 -2.360674,0.53286 -1.229767,0.002 -1.631161,-0.28114 -2.283919,-0.60257 -0.961479,-0.47344 -1.604385,-1.27733 -1.721833,-2.15298 -0.120323,-0.89707 0.03154,-1.39131 0.640701,-2.0851 0.860288,-0.97981 1.655174,-1.29691 3.271624,-1.30512 1.656413,-0.008 2.382908,0.26691 3.843561,1.45663 0.523517,0.42641 0.85152,0.81293 1.046782,0.95055 0.641385,-1.00846 0.722428,-2.39949 0.717201,-2.77775 -9.97e-4,-0.0728 -0.186193,0.10146 -0.411528,0.38732 -0.852465,1.0814 -1.967237,0.99808 -2.353286,-0.17588 -0.295598,-0.89891 -0.120295,-1.55937 0.826375,-3.11342 0.899514,-1.47664 1.169546,-2.61697 0.788366,-3.32921 -0.305259,-0.57038 -1.332584,-0.97993 -2.135862,-0.85148 -0.652068,0.10427 -1.251744,0.26321 -1.567817,0.46647 -0.03904,0.21099 0.02762,0.28261 -0.04117,0.64498 -0.138973,0.73214 -0.377145,1.46679 -0.565711,1.46679 -0.07155,0 -0.0225,-0.25745 0.108973,-0.57213 0.131479,-0.31468 0.239054,-0.75582 0.239054,-0.98032 v -0.40819 l -0.701173,0.40102 c -1.171417,0.66996 -2.201937,0.94715 -3.049089,0.8201 -2.14367,-0.32146 -2.357918,-3.00583 -0.265042,-3.35177 1.945147,-0.32153 3.325953,0.10111 3.931953,1.07687 0.145801,0.23476 0.218752,0.33656 0.286503,0.59748 0.22631,-0.0821 0.319624,-0.13164 0.539265,-0.18502 1.032491,-0.2508 2.506607,-0.14026 2.99912,0.22491 0.815528,0.60466 1.207911,1.34681 1.207911,2.28464 0,0.72044 -0.1284,1.072 -0.849747,2.3266 -0.927344,1.61287 -1.198353,2.44432 -0.948744,2.91072 0.427025,0.79791 1.233911,0.0458 2.372246,-2.21135 1.564548,-3.1022 2.963841,-4.77595 4.658907,-5.57273 0.959001,-0.45078 2.288193,-0.59805 3.069766,-0.3401 0.617204,0.20369 1.431486,1.01407 1.431486,1.42461 0,0.39766 -0.248035,0.26022 -0.437828,-0.2426 -0.573766,-1.52008 -2.863381,-1.38856 -4.69913,0.26993 -1.399316,1.2642 -2.380996,3.12839 -3.762947,6.85729 -0.277316,0.74827 -0.586664,1.4157 -1.087809,2.23362 0.157642,0.15841 0.179764,0.19152 0.323399,0.33516 l 0.423729,0.36061 c 0.338076,-0.47411 0.825089,-0.87453 1.214483,-1.18852 0.412761,-1.96111 3.5595,-3.72632 5.31284,-2.80884 0.353696,0.18507 0.681231,0.30731 0.759361,0.25902 0.244196,-0.15092 0.777767,0.10155 0.877283,0.4151 0.137318,0.43264 -0.16361,1.10828 -0.880355,1.97656 l -0.626524,0.75899 0.165538,1.3526 c 0.121976,0.99666 0.113423,1.52654 -0.0325,2.01359 -0.406158,1.35563 -1.696603,2.31474 -3.124243,2.32205 -1.835877,0.009 -3.332032,-1.83543 -2.863802,-3.53121 0.06531,-0.23652 0.119606,-0.54052 0.119606,-0.54052 -0.384514,-0.26025 -0.541332,-0.41155 -0.868209,-0.68254 -0.656301,1.18042 -0.758659,2.99719 -0.236572,4.13971 1.031563,2.13092 3.424039,2.88959 5.563439,1.7642 0.762014,-0.40084 0.895712,-0.43526 0.654238,-0.16844 -0.383885,0.42419 -1.909223,0.93878 -2.605477,0.92368 -0.291501,-0.006 -0.889189,-0.0518 -1.315596,-0.18299 z m 2.01231,-2.46051 c 0.999314,-0.51676 1.773582,-1.99557 1.932899,-3.69171 l 0.0988,-1.05184 -0.432961,0.28369 c -0.389972,0.25552 -0.283979,0.62581 -0.334043,1.00538 -0.05006,0.37956 -0.01054,0.73681 -0.48373,1.30433 -0.692131,0.83013 -1.34833,0.55155 -2.129765,0.11509 -0.625908,-0.34959 -1.297878,-0.80243 -1.646462,-1.1482 -0.302163,0.82297 -0.123338,1.6597 0.191822,2.27747 0.544344,1.067 1.742863,1.45424 2.803445,0.90579 z m 0.58527,-2.30242 c 0.299923,-0.29992 0.404955,-0.58263 0.404955,-1.09003 0,-0.58935 -0.04034,-0.66788 -0.288718,-0.562 -0.643826,0.27446 -2.127353,0.28099 -2.648175,0.0117 -0.217325,-0.11964 -0.372599,-0.16325 -0.500512,-0.2792 -0.06115,0.10576 -0.35596,0.20006 -0.486146,0.75434 0.507094,0.46009 1.225832,0.8738 1.662112,1.11285 -0.09876,-0.46216 -0.01593,-0.57402 0.0293,-0.69291 0.121611,-0.31976 0.523605,-0.33829 0.689453,-0.30636 0.379322,0.073 0.514138,0.63172 0.152444,0.63172 -0.256812,0 -0.361958,0.50255 -0.14958,0.71492 0.229159,0.22916 0.744755,0.0952 1.134872,-0.29497 z m -8.26156,-0.65776 c 0.877702,-0.42942 2.227024,-1.83086 2.393681,-2.16363 -0.151033,-0.30213 -1.557996,-1.48594 -2.412083,-1.8994 -2.082908,-1.00832 -4.924549,-0.43194 -5.751147,1.16652 -1.269763,2.45546 2.64945,4.42304 5.769549,2.89651 z m 5.028546,-1.49449 c -0.08922,-0.28484 -0.167974,-0.51463 -0.208392,-0.8205 -0.558093,0.38882 -0.844506,0.80037 -1.10423,1.08425 0.326162,0.27784 0.546821,0.44194 0.836197,0.61854 0.119616,-0.47171 0.303648,-0.63114 0.476425,-0.88229 z m 2.815925,0.38673 0.547047,-0.1907 -0.375724,-0.30424 c -0.428772,-0.3472 -1.429224,-0.40188 -2.063713,-0.11279 -0.539364,0.24575 -0.530821,0.40057 0.03348,0.60668 0.621288,0.22691 1.210046,0.22724 1.858908,0.001 z m 1.342759,-0.61768 c 0.342531,-0.17225 0.451973,-0.36456 0.501197,-0.88072 l 0.06297,-0.66034 -1.366026,0.11084 c -1.309352,0.10624 -2.875037,0.43619 -3.349455,0.74348 0.01417,0.32276 0.08033,0.49526 0.180315,0.8103 l 0.758184,-0.33538 c 0.89071,-0.394 1.753996,-0.32119 2.266343,0.19116 0.185013,0.18501 0.375056,0.31493 0.422316,0.2887 0.04726,-0.0262 0.283128,-0.14684 0.524152,-0.26804 z m 1.627678,-1.45117 c 0.525605,-0.82879 0.656221,-1.70001 0.254874,-1.70001 -0.156246,0 -0.231628,0.16915 -0.222258,0.49872 0.0085,0.29893 -0.12811,0.65018 -0.340997,0.87678 -0.313122,0.33331 -0.500592,1.09923 -0.269054,1.09923 0.04737,0 0.307215,-0.34862 0.577435,-0.77472 z m -2.519602,-0.17557 c 1.259046,-0.0698 1.526187,-0.13115 1.526697,-0.35081 3.3e-4,-0.14642 0.143575,-0.50068 0.318303,-0.78723 l 0.317687,-0.52101 -0.493596,-0.25231 c -1.380488,-0.74589 -4.371018,0.67306 -4.931123,2.59434 0.809427,-0.26397 2.062702,-0.61142 3.262032,-0.68297 z m 2.345742,-1.01978 c -0.0042,-0.20561 -0.05382,-0.19296 -0.247473,0.0631 -0.133224,0.17614 -0.239865,0.43599 -0.23698,0.57744 0.0042,0.20561 0.05383,0.19296 0.247473,-0.0631 0.133224,-0.17614 0.239865,-0.43599 0.23698,-0.57744 z m -13.816801,-6.88364 c 0.739624,-0.34708 0.652352,-0.29835 1.276007,-0.72937 -0.127134,-0.30387 -0.15695,-0.51825 -0.465386,-0.8689 -0.749137,-0.84894 -2.548244,-1.12846 -3.891155,-0.6066 -0.432646,0.16813 -0.930142,0.73227 -0.854752,1.346 0.197303,1.12678 1.627946,1.94143 3.935286,0.85887 z"
       style="fill:#999999;fill-opacity:1;stroke-width:0.999997" />
    <path
       d=""
       id="path867"
       style="fill:#000000;stroke-width:0.999997" />
    <path
       d=""
       id="path865"
       style="fill:#000000;stroke-width:0.999997" />
    <path
       d=""
       id="path861"
       style="fill:#000000;stroke-width:0.999997" />
    <path
       d=""
       id="path847"
       style="fill:#000000;stroke-width:0.999997" />
  </g>
</svg>
