<?xml version="1.0" encoding="UTF-8" standalone="no"?>
<svg
   xmlns:dc="http://purl.org/dc/elements/1.1/"
   xmlns:cc="http://creativecommons.org/ns#"
   xmlns:rdf="http://www.w3.org/1999/02/22-rdf-syntax-ns#"
   xmlns:svg="http://www.w3.org/2000/svg"
   xmlns="http://www.w3.org/2000/svg"
   xmlns:sodipodi="http://sodipodi.sourceforge.net/DTD/sodipodi-0.dtd"
   xmlns:inkscape="http://www.inkscape.org/namespaces/inkscape"
   id="Layer_1"
   viewBox="0 0 200 300"
   width="1667"
   height="2500"
   version="1.1"
   sodipodi:docname="figma.svg"
   inkscape:version="1.0.2 (e86c8708, 2021-01-15)">
  <metadata
     id="metadata1207">
    <rdf:RDF>
      <cc:Work
         rdf:about="">
        <dc:format>image/svg+xml</dc:format>
        <dc:type
           rdf:resource="http://purl.org/dc/dcmitype/StillImage" />
      </cc:Work>
    </rdf:RDF>
  </metadata>
  <defs
     id="defs1205" />
  <sodipodi:namedview
     pagecolor="#ffffff"
     bordercolor="#666666"
     borderopacity="1"
     objecttolerance="10"
     gridtolerance="10"
     guidetolerance="10"
     inkscape:pageopacity="0"
     inkscape:pageshadow="2"
     inkscape:window-width="776"
     inkscape:window-height="480"
     id="namedview1203"
     showgrid="false"
     inkscape:zoom="0.062032567"
     inkscape:cx="604.70425"
     inkscape:cy="1504.5678"
     inkscape:window-x="0"
     inkscape:window-y="25"
     inkscape:window-maximized="0"
     inkscape:current-layer="Layer_1" />
  <style
     type="text/css"
     id="style1191">.st0{fill:#0acf83}.st1{fill:#a259ff}.st2{fill:#f24e1e}.st3{fill:#ff7262}.st4{fill:#1abcfe}</style>
  <title
     id="title1193">Figma.logo</title>
  <desc
     id="desc1195">Created using Figma</desc>
  <path
     id="path0_fill"
     class="st0"
     d="m 55.319787,288.39319 c 24.129565,0 43.71298,-19.58341 43.71298,-43.71298 v -43.71298 h -43.71298 c -24.129565,0 -43.71298,19.58342 -43.71298,43.71298 0,24.12957 19.583415,43.71298 43.71298,43.71298 z"
     style="stroke-width:0.87426" />
  <path
     id="path1_fill"
     class="st1"
     d="m 11.606807,157.25425 c 0,-24.12956 19.583415,-43.71298 43.71298,-43.71298 h 43.71298 v 87.42596 h -43.71298 c -24.129565,0 -43.71298,-19.58341 -43.71298,-43.71298 z"
     style="stroke-width:0.87426" />
  <path
     id="path1_fill_1_"
     class="st2"
     d="m 11.606807,69.828294 c 0,-24.129565 19.583415,-43.71298 43.71298,-43.71298 h 43.71298 v 87.425956 h -43.71298 c -24.129565,0 -43.71298,-19.583407 -43.71298,-43.712976 z"
     style="stroke-width:0.87426" />
  <path
     id="path2_fill"
     class="st3"
     d="m 99.032767,26.115314 h 43.712983 c 24.12956,0 43.71298,19.583415 43.71298,43.71298 0,24.129569 -19.58342,43.712976 -43.71298,43.712976 H 99.032767 Z"
     style="stroke-width:0.87426" />
  <path
     id="path3_fill"
     class="st4"
     d="m 186.45873,157.25425 c 0,24.12957 -19.58342,43.71298 -43.71298,43.71298 -24.12957,0 -43.712983,-19.58341 -43.712983,-43.71298 0,-24.12956 19.583413,-43.71298 43.712983,-43.71298 24.12956,0 43.71298,19.58342 43.71298,43.71298 z"
     style="stroke-width:0.87426" />
</svg>
